# xmcd
# 
# Track frame offsets:
#     150
#     9836
#     20679
#     32363
#     49842
#     64416
#     81115
#     101764
#     113871
#     128474
#     141615
#     149707
#     161133
#     175162
# 
# Disc length: 2534
# 
# Revision: 0
# Processed by: cddbd v1.5.2PL0 Copyright (c) Steve Scherf et al.
# Submitted via: fre:ac v1.0.17
# 
DISCID=c309e40e
DTITLE=Various Artist - American III (Solitary Man)
DYEAR=0
DGENRE=
TTITLE0=Jonny Cash - I won't back down
TTITLE1=Johnny Cash - Solitary Man
TTITLE2=Johnny Cash - That Lucky old Sun
TTITLE3=Johnny Cash - One
TTITLE4=Johnny Cash - Nobody
TTITLE5=Johnny Cash - I see a Darkness
TTITLE6=Johnny Cash - The Mercy Seat
TTITLE7=Johnny Cash - Would you lay with me
TTITLE8=Johnny Cash - American III
TTITLE9=Johnny Cash - Before my Time
TTITLE10=Johnny Cash - Country Trash
TTITLE11=Johnny Cash - Mary of the Wild Moor
TTITLE12=Johnny Cash - I'm leaving now
TTITLE13=Johnny Cash - Wayfaring Stranger
EXTD=
EXTT0=
EXTT1=
EXTT2=
EXTT3=
EXTT4=
EXTT5=
EXTT6=
EXTT7=
EXTT8=
EXTT9=
EXTT10=
EXTT11=
EXTT12=
EXTT13=
PLAYORDER=
